<svg class="css-ze2te4 css-qd6ojx" viewBox="0 0 80 67.69589800914325" width="20" height="20" xmlns="http://www.w3.org/2000/svg" xmlns:xlink="http://www.w3.org/1999/xlink"><g transform="translate(-20.714798542213195, -25.37322803266556) scale(1.184447261860332)" class="css-1e98oqk" fill="#ffffff"><g xmlns="http://www.w3.org/2000/svg"><path fill="{{COLOR}}" d="M81.187,59.438v-22.42c0-0.571-0.463-1.035-1.035-1.035H50.276V33.5c0-0.571-0.463-1.035-1.035-1.035   h-8.662c-1.129,0-1.129-0.574-1.129-0.85c0-0.975,1.083-0.986,1.129-0.986h26.355c1.237,0,3.199-0.83,3.199-3.055   c0-1.774-1.256-2.92-3.199-2.92h-7.626v-2.197c0-0.571-0.463-1.035-1.035-1.035c-0.571,0-1.035,0.463-1.035,1.035v3.232   c0,0.571,0.463,1.035,1.035,1.035h8.661c1.129,0,1.129,0.574,1.129,0.85c0,0.975-1.083,0.986-1.129,0.986H40.579   c-1.236,0-3.198,0.83-3.198,3.055c0,1.774,1.256,2.92,3.198,2.92h7.627v1.448H18.524c-0.571,0-1.035,0.463-1.035,1.035v22.42   c0,2.188,1.78,3.968,3.968,3.968h55.762C79.407,63.406,81.187,61.626,81.187,59.438z M19.559,59.438V38.053h59.559v21.386   c0,1.047-0.851,1.898-1.898,1.898H21.457C20.41,61.337,19.559,60.485,19.559,59.438z"></path><path fill="{{COLOR}}" d="M28.297,39.838h-5.661c-0.571,0-1.035,0.463-1.035,1.035v5.662c0,0.571,0.463,1.035,1.035,1.035h5.661   c0.571,0,1.035-0.463,1.035-1.035v-5.662C29.332,40.302,28.869,39.838,28.297,39.838z M27.263,45.5h-3.592v-3.592h3.592V45.5z"></path><path fill="{{COLOR}}" d="M28.297,49.418h-5.661c-0.571,0-1.035,0.463-1.035,1.035v5.662c0,0.571,0.463,1.035,1.035,1.035h5.661   c0.571,0,1.035-0.463,1.035-1.035v-5.662C29.332,49.881,28.869,49.418,28.297,49.418z M27.263,55.08h-3.592v-3.592h3.592V55.08z"></path><path fill="{{COLOR}}" d="M37.846,39.838h-5.662c-0.571,0-1.035,0.463-1.035,1.035v5.662c0,0.571,0.463,1.035,1.035,1.035h5.662   c0.571,0,1.035-0.463,1.035-1.035v-5.662C38.881,40.302,38.418,39.838,37.846,39.838z M36.811,45.5h-3.592v-3.592h3.592V45.5z"></path><path fill="{{COLOR}}" d="M37.846,49.418h-5.662c-0.571,0-1.035,0.463-1.035,1.035v5.662c0,0.571,0.463,1.035,1.035,1.035h5.662   c0.571,0,1.035-0.463,1.035-1.035v-5.662C38.881,49.881,38.418,49.418,37.846,49.418z M36.811,55.08h-3.592v-3.592h3.592V55.08z"></path><path fill="{{COLOR}}" d="M47.395,39.838h-5.662c-0.571,0-1.035,0.463-1.035,1.035v5.662c0,0.571,0.463,1.035,1.035,1.035h5.662   c0.571,0,1.035-0.463,1.035-1.035v-5.662C48.429,40.302,47.966,39.838,47.395,39.838z M46.36,45.5h-3.592v-3.592h3.592V45.5z"></path><path fill="{{COLOR}}" d="M47.395,49.418h-5.662c-0.571,0-1.035,0.463-1.035,1.035v5.662c0,0.571,0.463,1.035,1.035,1.035h5.662   c0.571,0,1.035-0.463,1.035-1.035v-5.662C48.429,49.881,47.966,49.418,47.395,49.418z M46.36,55.08h-3.592v-3.592h3.592V55.08z"></path><path fill="{{COLOR}}" d="M56.943,39.838h-5.661c-0.571,0-1.035,0.463-1.035,1.035v5.662c0,0.571,0.463,1.035,1.035,1.035h5.661   c0.571,0,1.035-0.463,1.035-1.035v-5.662C57.978,40.302,57.514,39.838,56.943,39.838z M55.908,45.5h-3.592v-3.592h3.592V45.5z"></path><path fill="{{COLOR}}" d="M56.943,49.418h-5.661c-0.571,0-1.035,0.463-1.035,1.035v5.662c0,0.571,0.463,1.035,1.035,1.035h5.661   c0.571,0,1.035-0.463,1.035-1.035v-5.662C57.978,49.881,57.514,49.418,56.943,49.418z M55.908,55.08h-3.592v-3.592h3.592V55.08z"></path><path fill="{{COLOR}}" d="M66.492,49.418H60.83c-0.571,0-1.035,0.463-1.035,1.035v5.662c0,0.571,0.463,1.035,1.035,1.035h5.662   c0.571,0,1.035-0.463,1.035-1.035v-5.662C67.527,49.881,67.063,49.418,66.492,49.418z M65.457,55.08h-3.592v-3.592h3.592V55.08z"></path><path fill="{{COLOR}}" d="M76.04,49.418h-5.662c-0.571,0-1.035,0.463-1.035,1.035v5.662c0,0.571,0.463,1.035,1.035,1.035h5.662   c0.571,0,1.035-0.463,1.035-1.035v-5.662C77.075,49.881,76.612,49.418,76.04,49.418z M75.005,55.08h-3.592v-3.592h3.592V55.08z"></path><path fill="{{COLOR}}" d="M84.99,72.29c-0.077-0.263-0.255-0.486-0.496-0.617l-4.963-2.724c-0.501-0.276-1.13-0.092-1.405,0.409   l-2.724,4.963c-0.132,0.241-0.163,0.523-0.086,0.787c0.077,0.263,0.255,0.486,0.496,0.617l4.963,2.723   c0.158,0.087,0.328,0.128,0.497,0.128c0.365,0,0.72-0.194,0.908-0.537l2.724-4.963C85.036,72.837,85.066,72.554,84.99,72.29z    M80.863,76.137l-3.149-1.728l1.728-3.149l3.149,1.728L80.863,76.137z"></path><path fill="{{COLOR}}" d="M70.754,65.144c-0.188-0.2-0.448-0.316-0.722-0.324c-0.281-0.013-0.541,0.093-0.741,0.281l-4.12,3.883   c-0.416,0.392-0.435,1.047-0.043,1.463l3.883,4.12c0.188,0.2,0.448,0.316,0.722,0.324c0.011,0.001,0.021,0.001,0.031,0.001   c0.263,0,0.517-0.101,0.71-0.282l4.12-3.883c0.416-0.392,0.435-1.047,0.043-1.463L70.754,65.144z M69.808,72.395l-2.464-2.614   l2.613-2.464l2.464,2.614L69.808,72.395z"></path><path fill="{{COLOR}}" d="M66.492,39.838H60.83c-0.571,0-1.035,0.463-1.035,1.035v5.662c0,0.571,0.463,1.035,1.035,1.035h5.662   c0.571,0,1.035-0.463,1.035-1.035v-5.662C67.527,40.302,67.063,39.838,66.492,39.838z M64.68,44.782h-2.039v-2.039h2.039V44.782z"></path><path fill="{{COLOR}}" d="M76.04,39.838h-5.662c-0.571,0-1.035,0.463-1.035,1.035v5.662c0,0.571,0.463,1.035,1.035,1.035h5.662   c0.571,0,1.035-0.463,1.035-1.035v-5.662C77.075,40.302,76.612,39.838,76.04,39.838z M74.229,44.782H72.19v-2.039h2.039V44.782z"></path></g></g></svg>